<svg
        width="41mm"
        height="46mm"
        viewBox="0 0 410.00003 460"
        version="1.1"
        id="svg33"
        xmlns="http://www.w3.org/2000/svg">
  <defs
          id="defs27">
    <rect
            x="350.7619"
            y="331.10715"
            width="432.40475"
            height="152.70238"
            id="rect1029" />
    <rect
            x="4504.6406"
            y="143.66852"
            width="235.03014"
            height="108.74529"
            id="rect121" />
    <rect
            x="4517.5029"
            y="113.26661"
            width="378.85455"
            height="123.36159"
            id="rect115" />
    <rect
            x="4393.5566"
            y="148.34573"
            width="414.51834"
            height="114.59181"
            id="rect109" />
    <rect
            x="4427.4663"
            y="146.59178"
            width="135.05463"
            height="22.21678"
            id="rect103" />
    <rect
            x="4436.2783"
            y="49.911751"
            width="200.09116"
            height="142.21355"
            id="rect97" />
    <rect
            x="4547.0723"
            y="109.443"
            width="201.7448"
            height="71.106773"
            id="rect91" />
    <rect
            x="4504.6406"
            y="143.66852"
            width="235.03014"
            height="108.74529"
            id="rect121-0" />
    <rect
            x="4504.6406"
            y="143.66852"
            width="235.03014"
            height="108.74529"
            id="rect134" />
  </defs>
  <path
          id="rect32-4"
          d="M 0 0 L 0 90.000191 L 15.000118 90.000191 L 15.000118 0 L 0 0 z M 30.000236 0 L 30.000236 50.000049 L 44.999837 50.000049 L 44.999837 0 L 30.000236 0 z M 59.999955 0 L 59.999955 90.000191 L 75.000073 90.000191 L 75.000073 0 L 59.999955 0 z M 97.499992 0 L 97.499992 90.000191 L 112.50011 90.000191 L 154.99984 90.000191 L 154.99984 75.000073 L 154.99984 40.000142 L 125.00012 40.000142 L 125.00012 54.999744 L 140.00024 54.999744 L 140.00024 75.000073 L 112.50011 75.000073 L 112.50011 15.000118 L 140.00024 15.000118 L 140.00024 30.000236 L 154.99984 30.000236 L 154.99984 0 L 112.50011 0 L 97.499992 0 z M 177.49976 0 L 177.49976 90.000191 L 192.49988 90.000191 L 235.00013 90.000191 L 235.00013 75.000073 L 235.00013 59.999955 L 220.00001 59.999955 L 220.00001 75.000073 L 192.49988 75.000073 L 192.49988 15.000118 L 220.00001 15.000118 L 220.00001 30.000236 L 235.00013 30.000236 L 235.00013 0 L 192.49988 0 L 177.49976 0 z M 257.57239 0 L 257.57239 15.000118 L 270.00006 15.000118 L 270.00006 445.00023 L 257.57239 445.00023 L 257.57239 459.99983 L 297.57253 459.99983 L 297.57253 445.00023 L 285.00017 445.00023 L 285.00017 15.000118 L 297.57253 15.000118 L 297.57253 0 L 257.57239 0 z M 89.499963 140.00024 L 89.499963 229.99991 L 104.06807 229.99991 L 125.41767 229.99991 A 17.582157 17.611694 0 0 0 143.00006 212.38807 L 143.00006 157.61157 A 17.582157 17.611694 0 0 0 125.41767 140.00024 L 104.06807 140.00024 L 89.499963 140.00024 z M 158.00017 140.00024 L 158.00017 154.99984 L 197.9998 154.99984 L 197.9998 140.00024 L 158.00017 140.00024 z M 317.35996 140.00024 A 17.360631 17.611694 0 0 0 299.99978 157.61157 L 299.99978 212.38807 A 17.360631 17.611694 0 0 0 317.35996 229.99991 L 321.97621 229.99991 A 17.360631 17.611694 0 0 0 333.21325 225.81309 L 333.21325 229.96426 L 347.99943 229.96426 L 347.99943 184.81094 L 347.99943 180.75589 L 323.17769 180.75589 L 323.17769 195.75601 L 333.21325 195.75601 L 333.21325 212.38859 L 333.21325 214.9998 L 321.97621 214.9998 L 317.35996 214.9998 L 316.23496 214.9998 L 316.23496 212.38807 L 316.23496 157.61157 L 316.23496 154.99984 L 317.35996 154.99984 L 330.63873 154.99984 L 333.21325 154.99984 L 333.21325 157.61157 L 333.21325 169.99996 L 347.99943 169.99996 L 347.99943 157.61157 A 17.360631 17.611694 0 0 0 330.63873 140.00024 L 317.35996 140.00024 z M 363.00007 140.00024 L 363.00007 229.99991 L 377.76195 229.99991 L 377.76195 181.21168 L 395.23789 229.99991 L 409.99978 229.99991 L 409.99978 140.00024 L 395.23789 140.00024 L 395.23789 188.78848 L 377.76195 140.00024 L 363.00007 140.00024 z M 239.21899 140.00282 C 232.56922 139.99422 226.73274 140.00641 226.24924 140.03021 C 222.05847 140.23648 217.7868 142.56456 215.54912 145.8619 C 214.21278 147.83106 213.19225 150.59231 213.06141 152.59224 C 212.94783 154.3306 213.00513 179.81491 213.12498 180.87681 C 213.7106 186.06193 217.48374 190.61127 222.58693 192.2849 C 224.39763 192.87872 226.82287 193.02526 234.73296 193.02026 C 238.15467 193.01796 240.97604 193.04057 241.00234 193.06987 C 241.04244 193.1156 241.04324 209.28891 241.00234 212.65885 L 240.98839 213.83139 L 239.92696 213.86653 C 239.34318 213.88563 233.1199 213.90494 226.09783 213.90994 C 219.07575 213.91474 213.2857 213.95828 213.2304 214.00658 C 213.1253 214.09884 213.03082 228.7976 213.13118 229.48832 L 213.13169 229.48987 C 213.18134 229.83158 213.30149 229.89549 213.97764 229.94049 C 215.5074 230.04221 241.31673 230.00467 242.44722 229.89915 C 249.16132 229.27213 254.40544 223.89971 254.85628 217.18623 C 254.96136 215.62339 255.03545 201.30917 254.98185 192.95411 C 254.95371 188.56186 254.62969 186.7585 253.4605 184.48745 C 251.50708 180.69293 248.00795 178.06215 243.78202 177.21141 C 242.62836 176.97912 241.13912 176.92753 235.53963 176.92253 C 231.78095 176.91943 228.29348 176.88937 227.78971 176.85587 L 226.87401 176.79489 L 226.91121 176.22749 C 226.93201 175.91544 226.94415 171.5654 226.94015 166.56089 C 226.93555 161.55638 226.95109 157.16611 226.97529 156.80438 L 227.01922 156.14654 L 228.46616 156.12484 C 229.2621 156.11304 235.44961 156.10093 242.21622 156.09693 C 248.98284 156.09313 254.56602 156.04885 254.62322 155.99875 C 254.71562 155.9176 254.78232 144.61851 254.70952 141.32006 L 254.6811 140.02349 L 252.99541 140.02039 C 252.0683 140.01929 245.86877 140.01182 239.21899 140.00282 z M 104.06807 153.83764 L 125.41767 153.83764 L 126.67392 153.83764 L 126.67392 157.61157 L 126.67392 212.38807 L 126.67392 216.162 L 125.41767 216.162 L 125.41767 216.16252 L 104.06807 216.16252 L 104.06807 153.83764 z M 158.00017 177.49976 L 158.00017 192.49988 L 197.9998 192.49988 L 197.9998 177.49976 L 158.00017 177.49976 z M 158.00017 214.9998 L 158.00017 229.99991 L 197.9998 229.99991 L 197.9998 214.9998 L 158.00017 214.9998 z M 317.58165 272.45365 A 17.582157 17.611694 0 0 0 299.99978 290.0655 L 299.99978 344.842 A 17.582157 17.611694 0 0 0 317.58165 362.45385 L 333.58171 362.45385 A 17.582157 17.611694 0 0 0 351.1641 344.842 L 351.1641 290.0655 A 17.582157 17.611694 0 0 0 333.58171 272.45365 L 317.58165 272.45365 z M 76.50024 273.5802 L 76.50024 288.5798 L 121.50008 288.5798 L 121.50008 273.5802 L 76.50024 273.5802 z M 136.5002 273.5802 L 136.5002 340.42315 A 24.999999 24.999999 0 0 0 149.00021 362.07351 A 24.999999 24.999999 0 0 0 174.00023 362.07351 A 24.999999 24.999999 0 0 0 186.50024 340.42315 L 186.50024 273.5802 L 171.50013 273.5802 L 171.50013 340.42315 A 9.9999989 9.9999989 0 0 1 166.50043 349.08309 A 9.9999989 9.9999989 0 0 1 156.50052 349.08309 A 9.9999989 9.9999989 0 0 1 151.50031 340.42315 L 151.50031 273.5802 L 136.5002 273.5802 z M 45.719173 274.18378 C 39.0694 274.17518 33.232922 274.18737 32.749422 274.21117 C 28.558656 274.41744 24.286988 276.74552 22.0493 280.04285 C 20.71296 282.01201 19.692437 284.77327 19.561597 286.77319 C 19.448017 288.51156 19.504792 313.99586 19.624642 315.05777 C 20.210261 320.24289 23.983919 324.79222 29.087113 326.46586 C 30.897812 327.05968 33.32305 327.20673 41.233142 327.20173 C 44.654849 327.19943 47.476227 327.22153 47.502527 327.25083 C 47.542627 327.29656 47.543427 343.47038 47.502527 346.84033 L 47.488057 348.01235 L 46.426624 348.04749 C 45.842844 348.06659 39.620083 348.0859 32.59801 348.0909 C 25.575937 348.0957 19.785362 348.13923 19.730062 348.18753 C 19.624962 348.27979 19.530483 362.97907 19.630843 363.66979 L 19.631877 363.67083 C 19.681527 364.01253 19.801671 364.07644 20.47782 364.12144 C 22.007579 364.22316 47.816911 364.18562 48.9474 364.0801 C 55.661503 363.45308 60.905622 358.08067 61.356462 351.36718 C 61.461541 349.80434 61.535635 335.49012 61.482035 327.13507 C 61.453895 322.74282 61.12987 320.93946 59.960681 318.6684 C 58.007263 314.87389 54.507621 312.24363 50.281685 311.39288 C 49.128027 311.16059 47.639306 311.10849 42.039811 311.10349 C 38.281135 311.10039 34.793666 311.07033 34.289897 311.03683 L 33.37419 310.97585 L 33.410881 310.40844 C 33.431681 310.09639 33.443819 305.74635 33.439819 300.74185 C 33.435219 295.73733 33.451276 291.34707 33.475476 290.98534 L 33.518884 290.3275 L 34.966341 290.30631 C 35.76228 290.29451 41.949793 290.28189 48.716406 290.27789 C 55.483019 290.27409 61.066201 290.2298 61.123401 290.1797 C 61.215801 290.09855 61.2825 278.79947 61.209701 275.50101 L 61.180762 274.20445 L 59.495076 274.20135 C 58.567967 274.20025 52.368957 274.19278 45.719173 274.18378 z M 201.49985 274.55172 L 201.49985 364.55191 L 216.06795 364.55191 L 237.41807 364.55191 A 17.582157 17.611694 0 0 0 254.99994 346.94006 L 254.99994 292.16356 A 17.582157 17.611694 0 0 0 237.41807 274.55172 L 216.06795 274.55172 L 201.49985 274.55172 z M 316.32591 286.29157 L 317.58165 286.29157 L 333.58171 286.29157 L 334.83744 286.29157 L 334.83744 290.0655 L 334.83744 344.842 L 334.83744 348.61593 L 333.58171 348.61593 L 317.58165 348.61593 L 316.32591 348.61593 L 316.32591 344.842 L 316.32591 290.0655 L 316.32591 286.29157 z M 216.06795 288.38963 L 237.41807 288.38963 L 238.6738 288.38963 L 238.6738 292.16356 L 238.6738 346.94006 L 238.6738 350.71399 L 237.41807 350.71399 L 216.06795 350.71399 L 216.06795 288.38963 z M 91.715849 298.66239 L 91.715849 363.58039 L 106.28395 363.58039 L 106.28395 298.66239 L 91.715849 298.66239 z " />
</svg>